<?xml version="1.0" standalone="no"?>
<!DOCTYPE svg PUBLIC "-//W3C//DTD SVG 20010904//EN"
 "http://www.w3.org/TR/2001/REC-SVG-20010904/DTD/svg10.dtd">
<svg version="1.0" xmlns="http://www.w3.org/2000/svg"
 width="500.000000pt" height="500.000000pt" viewBox="0 0 500.000000 500.000000"
 preserveAspectRatio="xMidYMid meet">

<g transform="translate(0.000000,500.000000) scale(0.100000,-0.100000)"
fill="#000000" stroke="none">
<path d="M0 2500 l0 -2500 2500 0 2500 0 0 2500 0 2500 -2500 0 -2500 0 0
-2500z m3320 1743 c0 -5 -5 -15 -10 -23 -9 -13 -11 -13 -19 0 -5 8 -7 18 -5
22 6 10 34 11 34 1z m-152 -58 c13 -29 38 -32 63 -9 15 14 25 14 74 4 31 -6
63 -9 71 -6 9 3 14 -1 15 -12 1 -15 2 -15 6 1 7 26 27 15 31 -16 3 -23 8 -27
38 -27 28 0 38 -6 58 -39 30 -47 62 -71 94 -71 19 0 28 -11 48 -57 37 -84 39
-88 63 -91 24 -4 41 -37 41 -82 0 -15 7 -30 15 -34 21 -8 19 -35 -2 -30 -35 9
-74 -112 -43 -131 15 -9 12 -25 -4 -25 -11 0 -13 -9 -9 -35 l6 -35 -34 6 c-31
6 -32 5 -16 -8 18 -13 18 -15 -6 -25 -29 -13 -46 -76 -26 -99 16 -19 4 -43
-18 -38 -20 5 -63 -49 -63 -79 0 -10 -7 -20 -16 -24 -8 -3 -13 -11 -10 -18 2
-7 -11 -27 -30 -46 -31 -30 -35 -31 -52 -16 -23 21 -85 47 -112 47 -12 0 -43
-20 -69 -45 -26 -25 -50 -45 -52 -45 -3 0 -12 15 -22 33 -21 38 -103 87 -147
87 -79 0 -144 -72 -186 -206 -14 -44 -29 -83 -34 -88 -5 -5 -37 17 -77 54
-109 99 -282 190 -364 190 l-29 0 55 108 c98 190 188 336 218 350 28 14 34 26
17 37 -24 15 2 87 49 138 21 23 23 29 11 37 -13 8 -12 12 5 25 11 8 28 20 38
26 21 12 22 28 1 43 -9 7 -12 18 -8 29 8 21 23 22 30 2 5 -11 11 -12 25 -4 26
13 24 21 -11 41 -17 9 -30 22 -30 28 0 15 39 12 57 -5 17 -18 33 -11 33 14 0
10 6 29 13 42 10 20 20 24 56 24 24 0 46 5 48 12 5 12 62 27 108 28 24 0 33 7
45 32 18 39 23 40 38 8z m362 -35 c0 -5 -11 -10 -25 -10 -14 0 -25 5 -25 10 0
6 11 10 25 10 14 0 25 -4 25 -10z m-610 -10 c0 -5 -4 -10 -9 -10 -6 0 -13 5
-16 10 -3 6 1 10 9 10 9 0 16 -4 16 -10z m645 -19 c3 -5 1 -12 -5 -16 -5 -3
-10 1 -10 9 0 18 6 21 15 7z m763 -346 l47 -44 0 -83 c0 -65 -4 -89 -19 -110
-10 -16 -15 -28 -11 -28 4 0 2 -7 -5 -15 -7 -8 -20 -30 -29 -48 -10 -20 -23
-32 -36 -32 -11 0 -21 -7 -23 -16 -4 -19 -68 -49 -113 -51 -59 -3 -116 19
-140 55 -12 17 -33 42 -47 54 -18 17 -23 29 -19 50 3 15 0 36 -5 47 -8 15 -7
22 6 31 9 7 16 21 16 32 0 10 9 38 20 61 11 22 20 46 20 52 0 6 11 16 25 22
14 6 25 20 26 32 0 12 3 15 6 8 3 -9 9 -10 17 -3 25 21 121 41 169 35 39 -4
56 -13 95 -49z m-413 -165 c-3 -5 -10 -10 -16 -10 -5 0 -9 5 -9 10 0 6 7 10
16 10 8 0 12 -4 9 -10z m-2376 -78 c133 -77 146 -82 203 -82 29 0 71 -9 93
-19 42 -19 128 -111 145 -155 5 -14 17 -26 27 -26 10 0 38 -14 63 -30 25 -16
49 -30 54 -30 4 0 22 -11 38 -26 17 -14 44 -28 60 -31 26 -5 27 -7 14 -22 -8
-9 -19 -26 -23 -37 -8 -20 -11 -19 -92 27 -179 103 -277 128 -359 93 -20 -9
-53 -16 -72 -15 -40 2 -120 -38 -146 -72 -16 -22 -16 -21 -10 11 5 29 4 32
-13 23 -14 -8 -23 -6 -36 9 -10 11 -26 22 -35 25 -10 3 -23 19 -30 35 -15 35
-27 39 -32 8 -2 -15 -13 -24 -38 -31 -49 -12 -96 -61 -122 -126 -19 -48 -22
-76 -22 -201 0 -93 4 -155 12 -174 16 -36 12 -40 -24 -21 -16 8 -44 15 -62 15
l-32 0 6 -85 c7 -81 -1 -115 -26 -115 -11 0 -29 48 -40 110 -23 123 -73 277
-110 340 -43 71 -70 140 -70 175 0 13 -5 25 -11 27 -7 2 -3 18 11 41 26 44 23
110 -5 131 -15 11 -15 13 4 30 12 11 21 32 21 47 0 19 6 30 21 34 22 7 49 60
49 95 0 18 3 19 20 10 16 -8 27 -7 50 6 23 14 35 16 63 7 28 -9 36 -7 45 7 10
16 32 20 174 34 15 1 31 6 35 10 4 4 32 6 62 3 39 -4 76 -19 140 -55z m2261
-22 c0 -5 -2 -10 -4 -10 -3 0 -8 5 -11 10 -3 6 -1 10 4 10 6 0 11 -4 11 -10z
m-1720 -259 c0 -6 -4 -13 -10 -16 -5 -3 -10 1 -10 9 0 9 5 16 10 16 6 0 10 -4
10 -9z m1018 -128 c42 -26 52 -43 53 -92 1 -36 3 -41 8 -21 5 18 9 0 15 -60 6
-78 9 -87 36 -108 33 -26 41 -73 16 -101 -12 -14 -11 -31 6 -120 23 -117 16
-155 -24 -149 -30 4 -62 64 -89 166 l-22 83 -36 -3 -36 -3 -13 -75 c-19 -103
-21 -108 -32 -90 -8 12 -10 10 -10 -9 0 -58 -75 -84 -105 -37 -15 23 -15 32
-1 109 20 106 21 102 -9 115 -54 25 -37 100 29 127 28 12 34 21 45 70 15 67
47 149 73 188 22 32 55 35 96 10z m-1105 -40 c97 -47 194 -110 250 -162 28
-26 37 -43 37 -67 0 -48 -19 -58 -101 -50 l-71 6 21 -29 c37 -52 93 -180 98
-224 6 -51 -8 -67 -53 -60 -28 4 -34 12 -64 86 -18 45 -48 115 -67 155 -31 66
-36 72 -65 72 -23 0 -29 -4 -24 -16 3 -9 8 -61 11 -117 5 -119 -1 -110 -14 18
-9 83 -9 80 -4 -38 5 -113 3 -130 -12 -147 -41 -45 -74 -8 -85 92 -20 174 -30
211 -68 245 -33 29 -35 34 -24 57 6 14 16 26 21 26 11 0 8 131 -3 148 -4 7 -2
21 4 33 19 35 106 23 213 -28z m-568 13 c17 -12 19 -29 20 -167 1 -124 5 -165
21 -213 22 -66 39 -82 77 -72 44 11 51 37 55 234 l4 184 27 11 c14 6 29 16 32
20 11 15 43 3 55 -22 19 -36 27 -206 15 -301 -26 -206 -153 -325 -278 -262
-22 12 -52 36 -67 54 -15 18 -37 44 -51 58 -48 51 -72 252 -44 380 19 91 81
135 134 96z m1984 -11 c33 -29 87 -110 151 -230 26 -50 40 -69 37 -50 -4 17
-16 81 -28 143 -21 108 -21 113 -4 132 24 27 65 26 72 0 4 -16 8 -18 19 -9 17
14 19 10 38 -106 21 -122 36 -282 36 -370 0 -68 -2 -75 -26 -94 -15 -12 -30
-21 -35 -21 -16 0 -39 33 -50 73 -6 23 -48 107 -93 187 l-81 145 -5 -184 -5
-184 -27 -20 c-18 -14 -34 -18 -52 -13 -22 5 -26 12 -26 40 0 19 -5 36 -11 38
-8 3 -13 80 -17 240 l-5 236 28 36 c33 43 44 44 84 11z m-919 -18 c102 -42
255 -159 286 -218 19 -38 18 -55 -7 -80 -19 -19 -28 -21 -82 -14 l-60 6 75
-59 c81 -65 138 -127 138 -153 0 -9 -9 -24 -21 -35 -19 -17 -35 -19 -155 -16
-74 2 -170 -2 -215 -8 -61 -8 -84 -8 -95 1 -19 16 -18 56 2 67 24 14 17 162
-10 191 -17 19 -18 25 -6 61 19 59 8 146 -24 179 -78 81 40 133 174 78z m-211
-371 c7 -13 11 -31 9 -39 -2 -10 -9 -1 -20 23 -18 43 -10 55 11 16z m-499
-147 c0 -62 42 -121 95 -135 60 -15 144 49 155 118 5 32 6 31 29 -30 13 -34
30 -66 39 -71 13 -7 12 -13 -7 -39 -38 -54 -92 -179 -104 -241 -6 -34 -14 -61
-17 -61 -3 0 -3 -22 -2 -50 l4 -50 -34 0 c-18 0 -43 -3 -55 -6 -22 -6 -23 -4
-23 49 0 31 -4 59 -10 62 -5 3 -10 26 -10 50 0 76 -21 198 -40 236 -11 20 -17
39 -14 42 3 2 -25 10 -61 17 l-65 12 40 44 c22 24 46 55 52 69 17 37 28 30 28
-16z m1345 -119 c10 -12 8 -21 -11 -48 l-22 -33 -23 41 c-14 24 -30 40 -41 40
-15 0 -17 4 -9 19 6 10 21 30 33 44 l23 26 19 -37 c10 -20 24 -44 31 -52z
m-1598 -20 c24 0 29 -9 14 -25 -5 -6 -11 -23 -13 -38 -3 -28 -3 -27 -62 32
l-59 60 48 -14 c26 -8 59 -15 72 -15z m1312 11 c12 -8 11 -13 -10 -30 l-24
-20 -9 20 c-7 15 -6 23 5 30 17 11 21 11 38 0z m-337 -14 c-6 -6 -21 -31 -35
-55 l-24 -43 -26 43 c-14 24 -23 45 -21 47 2 3 23 8 47 12 68 11 71 10 59 -4z
m925 -20 c4 -7 32 -30 61 -51 36 -26 58 -51 69 -77 12 -30 25 -43 58 -58 57
-25 122 -85 137 -127 6 -19 18 -34 25 -34 7 0 13 -6 13 -14 0 -7 9 -16 21 -19
18 -5 20 -11 14 -36 -4 -20 1 -57 16 -106 18 -61 19 -77 9 -90 -10 -12 -10
-18 0 -31 11 -13 10 -16 -7 -20 -16 -5 -22 -16 -25 -56 -4 -34 -11 -54 -23
-60 -9 -6 -29 -38 -45 -73 -16 -35 -39 -70 -52 -78 -13 -8 -45 -27 -71 -43
-80 -48 -106 -73 -112 -107 -4 -20 7 -84 30 -175 37 -151 36 -174 -5 -185 -21
-5 -50 24 -50 52 0 50 -114 321 -135 321 -2 0 -12 -15 -23 -32 -15 -26 -19
-45 -15 -88 4 -43 1 -59 -10 -69 -33 -27 -50 -9 -79 84 -28 92 -59 135 -98
135 -14 0 -17 -6 -13 -22 4 -21 3 -22 -10 -5 -8 9 -18 17 -22 17 -5 0 -16 7
-25 15 -15 14 -21 14 -55 0 -38 -17 -64 -11 -32 6 9 6 17 14 17 18 0 12 -117
24 -136 13 -11 -6 -25 1 -51 24 -31 29 -34 35 -23 50 12 14 12 17 -3 25 -9 6
-17 16 -17 22 0 41 -144 132 -226 144 -36 5 -48 11 -59 34 -8 15 -27 37 -42
48 -18 15 -23 25 -16 32 7 7 17 1 32 -20 12 -16 46 -42 77 -57 88 -43 186 -27
261 43 l31 29 16 -34 c28 -58 126 -87 172 -50 7 5 30 4 58 -4 41 -11 50 -10
82 7 20 11 43 34 52 52 l16 33 13 -29 c20 -41 105 -85 149 -78 72 12 124 80
124 164 0 45 -66 390 -87 458 -9 28 -24 62 -34 77 -11 14 -19 29 -19 32 0 12
59 6 67 -7z m-1113 -39 c66 -61 104 -205 93 -348 -10 -113 -23 -149 -77 -202
-45 -46 -50 -48 -104 -48 -50 0 -60 4 -95 36 -56 50 -76 113 -75 239 0 76 5
114 21 160 20 55 93 196 78 150 -6 -18 -4 -18 18 3 22 21 63 39 94 41 7 1 28
-14 47 -31z m400 0 c66 -61 104 -205 93 -348 -10 -113 -23 -149 -77 -202 -45
-46 -50 -48 -104 -48 -50 0 -60 4 -95 36 -56 50 -76 113 -75 239 0 76 5 114
21 160 20 55 93 196 78 150 -6 -18 -4 -18 18 3 22 21 63 39 94 41 7 1 28 -14
47 -31z m-997 10 c26 -3 31 -34 59 -396 5 -63 8 -73 22 -67 35 13 188 18 210
6 23 -12 48 -80 39 -105 -5 -13 -22 -16 -79 -16 -40 -1 -104 -5 -143 -10 -175
-25 -173 -25 -179 1 -3 13 -7 85 -11 159 -3 74 -12 196 -19 270 -8 86 -10 142
-4 153 10 19 15 19 105 5z m1276 -8 c16 -13 29 -35 32 -58 33 -204 73 -385 75
-336 1 39 84 390 93 396 21 14 85 8 102 -8 8 -9 22 -29 31 -46 18 -36 94 -416
94 -475 0 -72 -51 -104 -101 -64 -19 15 -24 32 -30 98 -4 43 -17 128 -30 188
-22 101 -24 107 -35 80 -8 -20 -13 -24 -18 -14 -3 8 -3 4 -1 -8 7 -26 -4 -75
-15 -68 -4 2 -5 -7 -2 -22 3 -18 1 -24 -6 -19 -8 4 -10 2 -6 -7 3 -8 0 -34 -6
-57 -10 -39 -10 -42 14 -61 15 -11 26 -29 26 -40 0 -15 -7 -19 -34 -19 -29 0
-36 -5 -45 -30 -11 -32 -40 -40 -60 -16 -6 7 -27 67 -45 132 l-34 119 -1 -122
c-1 -131 -10 -157 -51 -146 -37 10 -50 44 -60 169 -12 152 -13 385 0 404 8 12
10 12 10 -5 1 -17 3 -16 11 5 11 27 36 50 55 50 6 0 23 -9 37 -20z m-1432
-473 c-1 -135 7 -159 66 -199 l38 -27 185 6 185 6 25 27 c23 25 28 26 45 14
11 -8 36 -20 56 -26 l37 -11 -16 -27 c-10 -15 -32 -40 -51 -56 -19 -15 -45
-53 -58 -82 -16 -36 -53 -84 -107 -141 -46 -47 -91 -101 -100 -118 -9 -18 -25
-37 -37 -43 -11 -6 -19 -16 -16 -23 2 -6 -5 -19 -15 -29 -13 -13 -16 -26 -11
-46 13 -52 10 -67 -14 -64 -12 2 -32 -2 -44 -9 -28 -15 -169 -130 -169 -138 0
-3 -16 -6 -36 -7 -23 0 -42 -7 -50 -18 -10 -14 -16 -16 -34 -6 -17 9 -26 8
-45 -4 -27 -18 -55 -21 -55 -6 0 6 7 10 15 10 8 0 15 7 15 15 0 11 -11 15 -41
15 -32 0 -42 -4 -46 -20 -8 -32 -20 -23 -15 11 3 21 -1 34 -14 43 -14 11 -18
30 -21 95 -1 45 -8 91 -13 101 -8 15 -7 26 4 42 8 13 20 52 26 88 29 162 51
234 115 371 37 79 87 194 110 254 24 61 49 123 56 138 l13 29 9 -24 c4 -13 8
-76 8 -141z m444 -127 c4 -6 -24 -10 -78 -10 -46 0 -120 -2 -163 -5 -90 -6
-86 2 7 14 93 12 227 13 234 1z m375 -80 c0 -5 -2 -10 -4 -10 -3 0 -8 5 -11
10 -3 6 -1 10 4 10 6 0 11 -4 11 -10z m302 -107 c21 -19 24 -43 5 -43 -17 0
-59 44 -50 53 11 11 25 8 45 -10z m34 -92 c-9 -13 -46 -15 -46 -1 0 14 34 30
44 20 4 -4 5 -13 2 -19z m31 -133 c-3 -8 -6 -5 -6 6 -1 11 2 17 5 13 3 -3 4
-12 1 -19z m303 -14 c0 -8 -4 -12 -10 -9 -5 3 -10 10 -10 16 0 5 5 9 10 9 6 0
10 -7 10 -16z m-160 -29 c0 -9 -6 -12 -16 -8 -13 5 -13 7 -2 14 17 11 18 11
18 -6z m30 -77 c0 -13 -23 -5 -28 10 -2 7 2 10 12 6 9 -3 16 -11 16 -16z
m-1590 -358 c0 -5 -4 -10 -10 -10 -5 0 -10 5 -10 10 0 6 5 10 10 10 6 0 10 -4
10 -10z m28 -65 c-2 -6 -9 -9 -15 -7 -7 2 -13 -3 -13 -9 0 -7 -3 -9 -6 -6 -9
8 16 39 28 35 5 -2 8 -8 6 -13z m112 -11 c0 -9 -5 -14 -12 -12 -18 6 -21 28
-4 28 9 0 16 -7 16 -16z"/>
<path d="M3042 2921 c-16 -69 -15 -71 8 -71 17 0 20 6 19 38 -1 20 -4 48 -8
61 -6 21 -8 17 -19 -28z"/>
<path d="M1904 2995 c9 -9 16 -27 16 -41 0 -28 3 -29 30 -11 17 10 27 8 60
-10 38 -22 104 -33 85 -14 -16 15 -147 78 -179 85 -26 6 -27 6 -12 -9z"/>
<path d="M1422 2980 c0 -14 2 -19 5 -12 2 6 2 18 0 25 -3 6 -5 1 -5 -13z"/>
<path d="M2452 2913 c5 -32 10 -58 11 -59 1 0 38 2 81 5 l80 6 -39 34 c-37 32
-107 70 -131 71 -8 0 -8 -17 -2 -57z"/>
<path d="M2481 2698 c0 -13 4 -42 7 -66 l7 -42 109 -4 c123 -4 122 -8 19 65
-35 24 -124 69 -139 69 -2 0 -4 -10 -3 -22z"/>
<path d="M2225 2220 c-15 -50 -19 -95 -19 -192 0 -71 -2 -126 -4 -123 -3 3 -9
58 -13 122 l-7 118 3 -132 c2 -108 0 -133 -11 -133 -19 0 -17 -14 4 -33 22
-20 65 -22 81 -3 6 7 19 43 28 80 14 58 15 82 5 172 -7 58 -20 124 -30 147
l-18 42 -19 -65z"/>
<path d="M2191 2164 c0 -11 3 -14 6 -6 3 7 2 16 -1 19 -3 4 -6 -2 -5 -13z"/>
<path d="M2625 2220 c-15 -50 -19 -95 -19 -192 0 -71 -2 -126 -4 -123 -3 3 -9
58 -13 122 l-7 118 3 -132 c2 -108 0 -133 -11 -133 -19 0 -17 -14 4 -33 22
-20 65 -22 81 -3 6 7 19 43 28 80 14 58 15 82 5 172 -7 58 -20 124 -30 147
l-18 42 -19 -65z"/>
<path d="M2591 2164 c0 -11 3 -14 6 -6 3 7 2 16 -1 19 -3 4 -6 -2 -5 -13z"/>
<path d="M1631 2278 c2 -77 6 -69 11 20 2 28 0 52 -4 52 -5 0 -7 -33 -7 -72z"/>
<path d="M1722 2310 c0 -14 2 -19 5 -12 2 6 2 18 0 25 -3 6 -5 1 -5 -13z"/>
<path d="M2992 2270 c0 -14 4 -36 8 -50 6 -20 8 -21 8 -5 0 11 -4 34 -8 50 -7
27 -8 27 -8 5z"/>
<path d="M3011 2174 c0 -11 3 -14 6 -6 3 7 2 16 -1 19 -3 4 -6 -2 -5 -13z"/>
</g>
</svg>
